<?xml version="1.0" encoding="UTF-8" standalone="no"?>
<!-- Created with Inkscape (http://www.inkscape.org/) -->

<svg
   width="720"
   height="720"
   viewBox="0 0 190.5 190.5"
   version="1.1"
   id="svg36948"
   inkscape:version="1.2.2 (b0a8486541, 2022-12-01)"
   sodipodi:docname="caffeine_inactive_80_40.svg"
   xmlns:inkscape="http://www.inkscape.org/namespaces/inkscape"
   xmlns:sodipodi="http://sodipodi.sourceforge.net/DTD/sodipodi-0.dtd"
   xmlns="http://www.w3.org/2000/svg"
   xmlns:svg="http://www.w3.org/2000/svg">
  <sodipodi:namedview
     id="namedview36950"
     pagecolor="#ffffff"
     bordercolor="#000000"
     borderopacity="0.25"
     inkscape:showpageshadow="2"
     inkscape:pageopacity="0.0"
     inkscape:pagecheckerboard="0"
     inkscape:deskcolor="#d1d1d1"
     inkscape:document-units="mm"
     showgrid="false"
     inkscape:zoom="0.74564394"
     inkscape:cx="129.41834"
     inkscape:cy="349.36246"
     inkscape:window-width="1920"
     inkscape:window-height="1018"
     inkscape:window-x="0"
     inkscape:window-y="0"
     inkscape:window-maximized="1"
     inkscape:current-layer="layer1" />
  <defs
     id="defs36945" />
  <g
     inkscape:label="Layer 1"
     inkscape:groupmode="layer"
     id="layer1">
    <path
       style="fill:#cccccc;stroke:none;stroke-width:0.343386;fill-opacity:0.69999999"
       d="m 89.706669,135.82685 c -0.100281,-0.005 -0.20763,-0.004 -0.322461,0.005 -6.400401,0.46208 -14.922609,4.23962 -18.716687,9.4418 -1.237222,1.69621 -5.367694,10.27296 -1.535823,10.62106 6.818083,0.61964 15.617572,-2.74749 19.383829,-8.56175 1.639436,-2.5304 2.520121,-5.57418 2.587439,-8.58243 0.02967,-1.314 0.107917,-2.84639 -1.396297,-2.92333 z"
       id="path45960" />
    <path
       style="fill:#cccccc;stroke:none;stroke-width:0.343386;fill-opacity:0.40000001"
       d="m 78.334753,72.880306 c -11.118911,-0.02972 -22.204795,0.726383 -32.909619,2.268079 -10.131641,1.459319 -22.771115,3.800862 -30.212626,11.426692 -7.2751126,7.45522 -3.753354,21.374283 -2.462899,30.548003 4.372504,31.09207 23.448498,61.27149 56.375887,66.79231 20.348101,3.41163 39.853634,-1.28043 55.298954,-15.05386 3.50001,-3.1212 6.47501,-7.10486 9.22321,-10.88719 1.17094,-1.61141 2.33752,-4.57517 4.18889,-5.46944 1.88675,-0.91144 6.08088,-0.0193 8.22895,-0.0227 4.65213,-0.008 9.68772,-0.73661 14.08286,-2.29961 6.25688,-2.22515 12.05126,-6.31139 15.87862,-11.7755 6.83834,-9.76314 7.77739,-27.22748 -2.48305,-35.1777 -6.58862,-5.105415 -14.31548,-3.876686 -21.98264,-3.27112 0,-3.431868 -0.0216,-6.55843 -1.83865,-9.612333 C 144.45505,81.490974 129.93528,78.680993 120.64793,76.890397 106.98162,74.255708 92.630504,72.91852 78.334753,72.880306 Z m 0.620118,8.479586 c 15.733649,0.07954 31.524929,1.797162 46.845199,5.329907 4.2087,0.97048 8.55213,2.197076 12.36514,4.271574 1.50925,0.821492 3.3434,1.989604 3.61063,3.847827 0.73917,5.14523 -9.37827,7.48987 -12.88448,8.57364 -14.65667,4.52932 -31.091952,6.56195 -46.370299,7.21764 0,3.034 -0.226687,9.00042 3.106787,10.61899 4.273576,2.07484 11.797481,-3.31975 12.635922,4.14239 0.755309,6.71918 1.088305,13.48918 1.088305,20.25406 0,4.80398 1.593275,14.12028 -1.598352,18.14876 -1.682711,2.12359 -5.596582,1.73488 -8.019149,1.76372 -5.65608,0.0673 -11.170453,0.0424 -16.831014,-0.63459 -2.424965,-0.29008 -5.28527,-0.44767 -7.176823,-2.19056 -2.227461,-2.05186 -2.206886,-5.04742 -2.538346,-7.81813 -0.884118,-7.38722 0.255138,-14.9246 0.436149,-22.31388 0.06728,-2.74016 -0.357477,-8.0429 1.866553,-10.07484 2.993431,-2.73501 10.792737,-1.22915 14.625981,-1.94045 -2.810022,-7.28082 -2.529936,-13.56321 1.653645,-20.25458 1.608173,-2.572259 4.176313,-5.579218 7.276559,-6.17895 l -6.869348,13.38833 c 12.753076,-9.8e-4 25.86003,-1.95473 38.12635,-5.44463 3.00238,-0.85411 11.23343,-2.827959 11.23343,-6.913788 0,-3.700322 -7.20527,-4.953226 -9.85935,-5.690609 -10.86532,-3.017858 -23.110309,-4.210098 -34.34829,-4.264339 -14.90429,-0.07175 -30.000734,0.06061 -44.652572,3.161564 -3.613067,0.764503 -12.481434,1.993487 -13.81311,6.108154 -1.292856,3.995546 7.137451,6.079448 9.690881,6.872448 11.3194,3.51565 24.20015,5.82807 36.066016,5.82807 l -0.343648,2.40295 c -14.005403,-0.28905 -29.21144,-2.71903 -42.591716,-6.87451 -3.642948,-1.13149 -12.153793,-2.958943 -12.100553,-7.88686 0.05053,-4.662555 8.200174,-6.870741 11.756905,-7.843966 13.315704,-3.643672 27.111247,-5.20295 40.874508,-5.539713 2.243779,-0.05497 4.490424,-0.07699 6.73809,-0.06563 z m 76.285779,26.125538 c 0.40773,0.008 0.79355,0.0243 1.12913,0.0258 5.85363,0.0258 10.9769,2.98923 12.40028,8.92503 3.94937,16.47141 -12.48972,26.76704 -26.82627,26.77666 2.45933,-8.53177 6.5983,-16.10453 8.10131,-25.05997 0.37234,-2.21624 -0.0335,-8.50788 1.71825,-9.95959 0.83568,-0.69234 2.25413,-0.73335 3.4773,-0.70797 z"
       id="path45958" />
    <path
       style="fill:#cccccc;stroke:none;stroke-width:0.343386;fill-opacity:0.69999999"
       d="m 89.061747,5.8115316 c 0.314363,0.251373 0.662636,0.4716668 1.028361,0.6707601 0.04829,-0.028888 0.0973,-0.057012 0.145728,-0.085783 C 89.88809,6.1344987 89.487399,5.949834 89.061747,5.8115316 Z"
       id="path42726" />
  </g>
</svg>
