<?xml version="1.0" encoding="UTF-8" standalone="no"?>
<!-- Created with Inkscape (http://www.inkscape.org/) -->

<svg
   width="720"
   height="720"
   viewBox="0 0 190.5 190.5"
   version="1.1"
   id="svg36948"
   inkscape:version="1.2.2 (b0a8486541, 2022-12-01)"
   sodipodi:docname="caffeine_active_10_40.svg"
   xmlns:inkscape="http://www.inkscape.org/namespaces/inkscape"
   xmlns:sodipodi="http://sodipodi.sourceforge.net/DTD/sodipodi-0.dtd"
   xmlns="http://www.w3.org/2000/svg"
   xmlns:svg="http://www.w3.org/2000/svg">
  <sodipodi:namedview
     id="namedview36950"
     pagecolor="#ffffff"
     bordercolor="#000000"
     borderopacity="0.25"
     inkscape:showpageshadow="2"
     inkscape:pageopacity="0.0"
     inkscape:pagecheckerboard="0"
     inkscape:deskcolor="#d1d1d1"
     inkscape:document-units="mm"
     showgrid="false"
     inkscape:zoom="0.74564394"
     inkscape:cx="129.41834"
     inkscape:cy="348.02134"
     inkscape:window-width="1920"
     inkscape:window-height="1018"
     inkscape:window-x="0"
     inkscape:window-y="0"
     inkscape:window-maximized="1"
     inkscape:current-layer="layer1" />
  <defs
     id="defs36945" />
  <g
     inkscape:label="Layer 1"
     inkscape:groupmode="layer"
     id="layer1">
    <path
       style="fill:#1a1a1a;stroke:none;stroke-width:0.343386;fill-opacity:0.40000001"
       d="m 88.016924,5.2098527 c 0.565706,1.8559033 2.413296,2.9822418 3.617546,4.4627895 2.578868,3.1704698 4.819395,7.8302738 4.070949,12.0152028 -1.271568,7.113343 -7.717013,11.802706 -11.553021,17.50787 -3.107484,4.62173 -3.99779,10.34337 -3.089277,15.791408 0.601093,3.606277 1.955442,7.024773 5.23639,8.925579 C 85.052324,59.355162 83.793462,55.854965 85.759554,51.210915 90.928612,39.00244 112.34645,28.397477 101.60507,13.105558 100.30946,11.260744 98.788858,9.7944084 96.947457,8.5023959 94.317412,6.6570324 91.255261,5.3509118 88.016924,5.2098527 M 76.682006,19.284805 c 0.710316,2.881692 0.587354,5.092042 -1.239974,7.552413 -5.739242,7.728178 -15.912849,13.140513 -12.03253,24.373697 0.569839,1.649859 1.518875,3.163089 2.687753,4.457641 1.646307,1.823563 3.6859,3.073489 6.119481,3.438064 C 68.417133,52.798639 68.208987,46.46491 72.395002,40.225589 76.194255,34.56265 84.674489,29.23305 79.353946,21.692857 78.615812,20.646642 77.773244,19.92851 76.682006,19.284805 m 31.943844,13.38837 c -0.007,10.224593 -10.477585,13.485176 -14.12433,21.970657 -1.573839,3.661889 -1.726351,9.781403 2.789421,11.328619 -4.508557,-12.363989 18.666529,-12.847684 15.913869,-25.746862 -0.28819,-1.351195 -0.79346,-2.597343 -1.51098,-3.776208 -0.86318,-1.418137 -1.75073,-2.760063 -3.06798,-3.776206 m 42.93528,67.285137 c 0,-3.431886 -0.0216,-6.558243 -1.83866,-9.612164 -5.26765,-8.854861 -19.78733,-11.665389 -29.07474,-13.455997 -24.295875,-4.68387 -50.754308,-5.26575 -75.222616,-1.74186 -10.131701,1.459331 -22.771155,3.800921 -30.212708,11.426799 -7.275157,7.455262 -3.753228,21.37402 -2.462761,30.5478 4.372528,31.09225 23.448164,61.27169 56.375751,66.79251 20.348221,3.41163 39.853884,-1.28013 55.299264,-15.05368 3.50007,-3.1212 6.47498,-7.10476 9.22318,-10.88715 1.17094,-1.61141 2.3374,-4.57539 4.18877,-5.46966 1.88675,-0.91144 6.08067,-0.0196 8.2288,-0.023 4.65213,-0.008 9.68758,-0.73637 14.08278,-2.29937 6.25688,-2.22521 12.05142,-6.31142 15.87884,-11.77559 6.8384,-9.7632 7.77747,-27.22714 -2.48303,-35.17742 -6.58868,-5.105433 -14.31565,-3.876794 -21.98287,-3.271228 M 82.521202,110.60036 c 0,3.034 -0.227046,9.00041 3.106452,10.61904 4.2736,2.07484 11.797925,-3.31964 12.636366,4.1425 0.755315,6.71924 1.087807,13.4893 1.087807,20.25418 0,4.80404 1.593413,14.12027 -1.598215,18.14881 -1.682723,2.12359 -5.596711,1.73464 -8.01929,1.76348 -5.656116,0.0673 -11.170036,0.0422 -16.830627,-0.63475 -2.424983,-0.29008 -5.285501,-0.44731 -7.17706,-2.1902 -2.227479,-2.05186 -2.206876,-5.04776 -2.538336,-7.81847 -0.884124,-7.38728 0.255213,-14.92459 0.436224,-22.31393 0.06728,-2.74016 -0.357563,-8.04264 1.866479,-10.07458 2.993449,-2.73501 10.792566,-1.22933 14.625828,-1.94063 -2.810034,-7.28088 -2.529748,-13.56277 1.653863,-20.2542 1.608179,-2.572283 4.176406,-5.579517 7.27667,-6.179249 l -6.869646,13.388369 c 12.753154,-9.8e-4 25.860093,-1.9547 38.126533,-5.4446 3.00238,-0.85411 11.23324,-2.828035 11.23324,-6.913894 0,-3.70034 -7.20523,-4.95301 -9.85931,-5.690399 -10.86538,-3.017876 -23.110178,-4.21047 -34.348225,-4.264711 -14.90438,-0.07175 -30.000774,0.06076 -44.652696,3.161716 -3.613091,0.764509 -12.48112,1.993494 -13.812802,6.108185 -1.292862,3.99557 7.13756,6.079693 9.691008,6.872693 11.319466,3.51565 24.199705,5.82772 36.065643,5.82772 l -0.343484,2.40303 c -14.005487,-0.28905 -29.211446,-2.71886 -42.5918,-6.8744 -3.642972,-1.13149 -12.153438,-2.959178 -12.100198,-7.887125 0.05053,-4.662585 8.199958,-6.870293 11.756713,-7.843524 13.315782,-3.643696 27.111058,-5.202926 40.874397,-5.539695 17.950374,-0.439757 36.074214,1.226581 53.583224,5.264031 4.2087,0.970486 8.55236,2.197067 12.36537,4.271577 1.50925,0.821498 3.34345,1.989718 3.61068,3.847953 0.73917,5.14526 -9.37844,7.489593 -12.88471,8.573363 -14.65673,4.52938 -31.091661,6.56202 -46.370098,7.21771 m 59.422428,32.61269 c 2.45933,-8.53183 6.5983,-16.10484 8.10137,-25.06028 0.37234,-2.2163 -0.0333,-8.5078 1.71844,-9.95957 1.11425,-0.92312 3.26412,-0.68831 4.60644,-0.68213 5.85363,0.0258 10.97667,2.98938 12.40005,8.92524 3.94937,16.47147 -12.48969,26.76712 -26.8263,26.77674 m -52.559316,-7.38147 c -6.400443,0.46208 -14.922583,4.23931 -18.716685,9.44155 -1.237228,1.69621 -5.367599,10.27334 -1.53571,10.62144 6.818125,0.61964 15.617453,-2.74771 19.383734,-8.56203 1.639442,-2.5304 2.520128,-5.57403 2.587446,-8.58229 0.03165,-1.40165 0.118503,-3.05151 -1.718785,-2.91867 z"
       id="path36924" />
  </g>
</svg>
